<mxfile host="app.diagrams.net" modified="2023-07-26T04:28:40.876Z" agent="Mozilla/5.0 (Windows NT 10.0; Win64; x64) AppleWebKit/537.36 (KHTML, like Gecko) Chrome/114.0.0.0 Safari/537.36" version="21.6.5" etag="FGT6U3MOt3TmcOk8h8yx" type="github">
  <diagram name="Page-1" id="3O_LhizPAXKvFWcXWVXQ">
    <mxGraphModel>
      <root>
        <mxCell id="0" />
        <mxCell id="1" parent="0" />
      </root>
    </mxGraphModel>
  </diagram>
</mxfile>
